<?xml version="1.0" encoding="UTF-8"?>
<svg id="Layer_1" data-name="Layer 1" xmlns="http://www.w3.org/2000/svg" viewBox="0 0 1024 1024">
  <defs>
    <style>
      .cls-1 {
        letter-spacing: -.04em;
      }

      .cls-2 {
        letter-spacing: -.09em;
      }

      .cls-3 {
        fill: none;
      }

      .cls-4 {
        fill: #1a7b72;
      }

      .cls-5 {
        letter-spacing: -.09em;
      }

      .cls-6 {
        letter-spacing: -.05em;
      }

      .cls-7 {
        letter-spacing: -.06em;
      }

      .cls-8 {
        letter-spacing: -.08em;
      }

      .cls-9 {
        fill: #2b1e2f;
        font-family: Spectral-Medium, Spectral;
        font-size: 156px;
        font-weight: 500;
      }

      .cls-10 {
        fill: #2ab3a6;
      }

      .cls-11 {
        letter-spacing: -.08em;
      }

      .cls-12 {
        letter-spacing: -.08em;
      }
    </style>
  </defs>
  <text class="cls-9" transform="translate(347.34 557.24)"><tspan class="cls-5" x="0" y="0">F</tspan><tspan class="cls-8" x="82.88" y="0">l</tspan><tspan class="cls-11" x="116.58" y="0">o</tspan><tspan class="cls-1" x="189.23" y="0">w</tspan><tspan class="cls-7" x="299.44" y="0">r</tspan><tspan class="cls-2" x="353.66" y="0">i</tspan><tspan class="cls-12" x="389.65" y="0">t</tspan><tspan class="cls-6" x="434.05" y="0">e</tspan></text>
  <g>
    <path class="cls-3" d="M311.62,560.36h-136.68v-136.68h136.68v136.68Z"/>
    <path class="cls-4" d="M311.6,522.06c-23.9-7.79-55.01-15.06-91.68-16.48-16.35-.64-31.45-.02-45.02,1.29v53.5h136.7v-38.3Z"/>
    <path class="cls-10" d="M174.96,560.36h136.66v-62.27c-28.01,14.51-50.22,17.99-65.77,18.3-4.59.09-7.14-.12-13.15,0-24.87.49-44.63,5.23-57.74,9.31v34.66Z"/>
  </g>
</svg>